<?xml version="1.0" standalone="no"?><!DOCTYPE svg PUBLIC "-//W3C//DTD SVG 1.1//EN" "http://www.w3.org/Graphics/SVG/1.1/DTD/svg11.dtd"><svg t="1633771356443" class="icon" viewBox="0 0 1024 1024" version="1.1" xmlns="http://www.w3.org/2000/svg" p-id="5163" xmlns:xlink="http://www.w3.org/1999/xlink" width="200" height="200"><defs><style type="text/css"></style></defs><path d="M264.789333 396.373333a42.965333 42.965333 0 0 0-60.288 0 41.856 41.856 0 0 0 0 59.648l247.210667 244.608c33.28 32.938667 87.296 32.938667 120.576 0l247.210667-244.608a41.856 41.856 0 0 0 0-59.648 42.965333 42.965333 0 0 0-60.288 0L512 640.981333 264.789333 396.373333z" fill="#43e5fa" p-id="5164"></path><path d="M512 1024c282.752 0 512-229.248 512-512S794.752 0 512 0 0 229.248 0 512s229.248 512 512 512z m0-85.333333C276.352 938.666667 85.333333 747.648 85.333333 512S276.352 85.333333 512 85.333333s426.666667 191.018667 426.666667 426.666667-191.018667 426.666667-426.666667 426.666667z" fill="#43e5fa" p-id="5165"></path></svg>