<?xml version="1.0" encoding="utf-8"?>
<!-- Generator: Adobe Illustrator 22.1.0, SVG Export Plug-In . SVG Version: 6.00 Build 0)  -->
<svg version="1.1" id="图层_1" xmlns="http://www.w3.org/2000/svg" xmlns:xlink="http://www.w3.org/1999/xlink" x="0px" y="0px"
	 viewBox="0 0 165 20" style="enable-background:new 0 0 165 20;" xml:space="preserve">
<style type="text/css">
	.st0{clip-path:url(#SVGID_2_);}
	.st1{fill:#FFFFFF;}
	.st2{fill:url(#SVGID_3_);}
</style>
<g>
	<defs>
		<rect id="SVGID_1_" width="165" height="20"/>
	</defs>
	<clipPath id="SVGID_2_">
		<use xlink:href="#SVGID_1_"  style="overflow:visible;"/>
	</clipPath>
	<g class="st0">
		<path class="st1" d="M48.7,8h-12V4h15.1V0H36.6c-1.1,0-2.1,0.4-2.8,1.2C33,1.9,32.6,2.9,32.6,4V8c0,1.1,0.4,2.1,1.2,2.8
			c0.7,0.7,1.8,1.2,2.8,1.2h12v4H32.9v4h15.7c1.1,0,2.1-0.4,2.8-1.2c0.7-0.7,1.2-1.8,1.2-2.8V12c0-1.1-0.4-2.1-1.2-2.8
			C50.7,8.4,49.7,8,48.7,8z"/>
		<path class="st1" d="M71.9,0H59.9c-0.5,0-1,0.1-1.5,0.3c-0.5,0.2-0.9,0.5-1.3,0.9c-0.4,0.4-0.7,0.8-0.9,1.3
			c-0.2,0.5-0.3,1-0.3,1.5V16c0,0.5,0.1,1,0.3,1.5s0.5,0.9,0.9,1.3c0.4,0.4,0.8,0.7,1.3,0.9c0.5,0.2,1,0.3,1.5,0.3h12.1
			c1.1,0,2.1-0.4,2.8-1.2c0.7-0.7,1.2-1.8,1.2-2.8V4c0-1.1-0.4-2.1-1.2-2.8C74,0.4,73,0,71.9,0L71.9,0z M71.9,16h-12V4h12V16z"/>
		<path class="st1" d="M114.2,0h-11.8c-1.1,0-2.1,0.4-2.8,1.2c-0.7,0.7-1.2,1.8-1.2,2.8v16h4v-6.6h11.7V20h4V4c0-0.5-0.1-1-0.3-1.5
			c-0.2-0.5-0.5-0.9-0.9-1.3c-0.4-0.4-0.8-0.7-1.3-0.9C115.2,0.1,114.7,0,114.2,0z M114.2,9.4h-11.7V4h11.7V9.4z"/>
		<path class="st1" d="M161,0h-11.8c-0.5,0-1,0.1-1.5,0.3c-0.5,0.2-0.9,0.5-1.3,0.9c-0.4,0.4-0.7,0.8-0.9,1.3
			c-0.2,0.5-0.3,1-0.3,1.5v16h4v-6.6H161V20h4V4c0-1.1-0.4-2.1-1.2-2.8C163.1,0.4,162.1,0,161,0z M161,9.4h-11.7V4H161V9.4z"/>
		<path class="st1" d="M137.7,16h-1.6l-5.7-14.3c-0.2-0.5-0.5-0.9-1-1.2c-0.4-0.3-1-0.5-1.5-0.5h-3.6c-0.7,0-1.4,0.3-1.9,0.8
			c-0.5,0.5-0.8,1.2-0.8,1.9V20h4V4h1.6l5.7,14.3c0.2,0.5,0.5,0.9,1,1.2c0.4,0.3,1,0.5,1.5,0.5h3.6c0.7,0,1.4-0.3,1.9-0.8
			c0.5-0.5,0.8-1.2,0.8-1.9V0h-4L137.7,16z"/>
		<path class="st1" d="M83.5,0h-4v16c0,1.1,0.4,2.1,1.2,2.8c0.7,0.7,1.8,1.2,2.8,1.2h12v-4h-12V0z"/>
		
			<linearGradient id="SVGID_3_" gradientUnits="userSpaceOnUse" x1="1.0872" y1="1.5594" x2="21.9615" y2="22.4337" gradientTransform="matrix(1 0 0 -1 0 22)">
			<stop  offset="0" style="stop-color:#9945FF"/>
			<stop  offset="0.14" style="stop-color:#8A53F4"/>
			<stop  offset="0.42" style="stop-color:#6377D6"/>
			<stop  offset="0.79" style="stop-color:#24B0A7"/>
			<stop  offset="0.99" style="stop-color:#00D18C"/>
			<stop  offset="1" style="stop-color:#00D18C"/>
		</linearGradient>
		<path class="st2" d="M4.2,15.2c0.1-0.1,0.2-0.1,0.3-0.2C4.6,15,4.7,15,4.8,15h17.5c0.1,0,0.1,0,0.2,0.1c0.1,0,0.1,0.1,0.1,0.2
			c0,0.1,0,0.1,0,0.2c0,0.1,0,0.1-0.1,0.2l-3.7,4.1c-0.1,0.1-0.2,0.1-0.3,0.2c-0.1,0-0.2,0.1-0.3,0.1H0.8c-0.1,0-0.1,0-0.2-0.1
			c-0.1,0-0.1-0.1-0.1-0.2c0-0.1,0-0.1,0-0.2c0-0.1,0-0.1,0.1-0.2L4.2,15.2z M22.5,11.8c0,0.1,0.1,0.1,0.1,0.2c0,0.1,0,0.1,0,0.2
			c0,0.1-0.1,0.1-0.1,0.2c-0.1,0-0.1,0.1-0.2,0.1l-17.5,0c-0.1,0-0.2,0-0.3-0.1c-0.1,0-0.2-0.1-0.3-0.2L0.5,8.2C0.5,8.1,0.4,8,0.4,8
			c0-0.1,0-0.1,0-0.2c0-0.1,0.1-0.1,0.1-0.2c0.1,0,0.1-0.1,0.2-0.1l17.5,0c0.1,0,0.2,0,0.3,0.1c0.1,0,0.2,0.1,0.3,0.2L22.5,11.8z
			 M4.2,0.3c0.1-0.1,0.2-0.1,0.3-0.2C4.6,0,4.7,0,4.8,0l17.5,0c0.1,0,0.1,0,0.2,0.1c0.1,0,0.1,0.1,0.1,0.2c0,0.1,0,0.1,0,0.2
			c0,0.1,0,0.1-0.1,0.2l-3.7,4.1c-0.1,0.1-0.2,0.1-0.3,0.2C18.5,5,18.4,5,18.3,5H0.8C0.7,5,0.7,5,0.6,4.9c-0.1,0-0.1-0.1-0.1-0.2
			c0-0.1,0-0.1,0-0.2c0-0.1,0-0.1,0.1-0.2L4.2,0.3z"/>
	</g>
</g>
</svg>
