<?xml version="1.0" encoding="utf-8"?>
<!-- Generator: Adobe Illustrator 22.1.0, SVG Export Plug-In . SVG Version: 6.00 Build 0)  -->
<svg version="1.1" id="图层_1" xmlns="http://www.w3.org/2000/svg" xmlns:xlink="http://www.w3.org/1999/xlink" x="0px" y="0px"
	 viewBox="0 0 193.3 47.7" style="enable-background:new 0 0 193.3 47.7;" xml:space="preserve">
<style type="text/css">
	.st0{fill:#1B262C;}
	.st1{fill:#22313A;}
	.st2{fill:#26353D;}
	.st3{fill:#3877FF;}
	.st4{fill:#C47945;}
	.st5{fill:#A74FAA;}
	.st6{fill:#16C79A;}
	.st7{fill:#3D4A52;}
	.st8{fill:#FFFFFF;}
	.st9{fill:#282D49;}
	.st10{fill:none;stroke:#51AAF4;stroke-miterlimit:10;}
	.st11{fill:none;stroke:#FFFFFF;stroke-width:5;stroke-miterlimit:10;}
	.st12{fill:#FFFFFF;stroke:#FFFFFF;stroke-width:0.75;stroke-miterlimit:10;}
	.st13{fill:none;stroke:#22313A;stroke-width:2;stroke-miterlimit:10;}
	.st14{fill:none;stroke:#3877FF;stroke-width:2;stroke-miterlimit:10;}
	.st15{fill:none;stroke:#16C79A;stroke-width:2;stroke-miterlimit:10;}
	.st16{fill:none;stroke:#22313A;stroke-width:2;stroke-linecap:round;stroke-linejoin:round;stroke-miterlimit:10;}
	.st17{fill:#16C79A;stroke:#282D49;stroke-width:2;stroke-miterlimit:10;}
	.st18{fill:none;stroke:#C47945;stroke-width:2;stroke-miterlimit:10;}
	.st19{fill:#C47945;stroke:#22313A;stroke-width:2;stroke-miterlimit:10;}
	.st20{fill:none;stroke:#A74FAA;stroke-width:2;stroke-miterlimit:10;}
	.st21{fill:#A74FAA;stroke:#282D49;stroke-width:2;stroke-miterlimit:10;}
	.st22{fill:url(#SVGID_1_);}
	.st23{fill:#FFF0F0;}
	.st24{fill:#FF33FF;}
	.st25{fill:#5967EA;}
	.st26{fill:#0F0F0F;}
	.st27{fill:none;stroke:#282D49;stroke-width:2;stroke-miterlimit:10;}
	.st28{fill:none;stroke:#282D49;stroke-width:8;stroke-linecap:round;stroke-linejoin:round;stroke-miterlimit:10;}
	.st29{fill:#16C79A;stroke:#282D49;stroke-width:8;stroke-linecap:round;stroke-linejoin:round;stroke-miterlimit:10;}
	.st30{fill:#00EF8B;}
	.st31{fill:#16FF99;}
	.st32{clip-path:url(#SVGID_3_);}
	.st33{fill:url(#SVGID_4_);}
	.st34{fill:#633001;}
	.st35{fill:#FEDC90;}
	.st36{fill:#D1884F;}
	.st37{fill:#8247E5;}
	.st38{fill:#F3BA2F;}
	.st39{fill:url(#SVGID_5_);}
	.st40{fill:url(#SVGID_6_);}
	.st41{fill:url(#SVGID_7_);}
	.st42{fill:#343434;}
	.st43{fill:#8C8C8C;}
	.st44{fill:#3C3C3B;}
	.st45{fill:#141414;}
	.st46{fill:#393939;}
	.st47{fill:url(#SVGID_8_);}
	.st48{fill:#FF007A;}
</style>
<g>
	<g>
		<path class="st8" d="M162.7,34.5c-0.4,0-0.7-0.1-0.9-0.1c-0.3-0.1-0.5-0.2-0.7-0.4c-0.2-0.2-0.3-0.4-0.4-0.6
			c-0.1-0.3-0.1-0.6-0.1-1V22.2l1-0.2v10.4c0,0.3,0,0.5,0.1,0.6c0,0.2,0.1,0.3,0.2,0.4c0.1,0.1,0.2,0.2,0.4,0.2
			c0.2,0,0.3,0.1,0.6,0.1L162.7,34.5z"/>
		<path class="st8" d="M167,25.9c0.5,0,1,0.1,1.4,0.2c0.4,0.2,0.7,0.4,0.9,0.6c0.2,0.3,0.4,0.6,0.5,1c0.1,0.4,0.2,0.8,0.2,1.2v5.2
			c-0.1,0-0.3,0.1-0.5,0.1s-0.4,0.1-0.7,0.1c-0.3,0-0.6,0.1-0.9,0.1c-0.3,0-0.7,0-1,0c-0.4,0-0.8,0-1.2-0.1c-0.4-0.1-0.7-0.2-1-0.5
			s-0.5-0.5-0.6-0.8c-0.2-0.3-0.2-0.7-0.2-1.2c0-0.4,0.1-0.8,0.3-1.2c0.2-0.3,0.4-0.6,0.7-0.8c0.3-0.2,0.7-0.4,1.1-0.5
			c0.4-0.1,0.9-0.1,1.4-0.1c0.1,0,0.3,0,0.5,0c0.2,0,0.3,0,0.5,0.1s0.3,0.1,0.4,0.1c0.1,0,0.2,0.1,0.2,0.1v-0.5c0-0.3,0-0.6-0.1-0.8
			c0-0.3-0.1-0.5-0.3-0.7s-0.3-0.4-0.6-0.5c-0.3-0.1-0.6-0.2-1-0.2c-0.6,0-1.1,0-1.4,0.1c-0.3,0.1-0.5,0.2-0.7,0.2l-0.1-0.9
			c0.2-0.1,0.5-0.2,0.8-0.2C166,25.9,166.5,25.9,167,25.9z M167.1,33.6c0.4,0,0.8,0,1.1,0c0.3,0,0.6-0.1,0.8-0.1v-2.9
			c-0.1-0.1-0.3-0.1-0.6-0.2c-0.3-0.1-0.6-0.1-1.1-0.1c-0.3,0-0.5,0-0.8,0.1c-0.3,0-0.5,0.1-0.8,0.2c-0.2,0.1-0.4,0.3-0.6,0.5
			c-0.1,0.2-0.2,0.5-0.2,0.8c0,0.3,0.1,0.6,0.2,0.8c0.1,0.2,0.2,0.4,0.4,0.5s0.4,0.2,0.7,0.3C166.5,33.6,166.8,33.6,167.1,33.6z"/>
		<path class="st8" d="M173.5,26.6c0.2-0.1,0.5-0.3,0.9-0.4s0.9-0.2,1.4-0.2c0.6,0,1.1,0.1,1.6,0.3c0.5,0.2,0.9,0.5,1.2,0.9
			c0.3,0.4,0.6,0.8,0.7,1.4c0.2,0.5,0.2,1.1,0.2,1.7c0,0.7-0.1,1.3-0.3,1.8c-0.2,0.5-0.5,1-0.8,1.4s-0.8,0.7-1.3,0.9
			c-0.5,0.2-1,0.3-1.7,0.3c-0.7,0-1.3,0-1.8-0.1s-0.9-0.2-1.2-0.3v-12l1-0.2V26.6z M173.5,33.4c0.2,0.1,0.4,0.1,0.7,0.2
			s0.7,0.1,1.2,0.1c0.9,0,1.6-0.3,2.2-0.9s0.8-1.4,0.8-2.5c0-0.5,0-0.9-0.1-1.3c-0.1-0.4-0.3-0.8-0.5-1.1s-0.5-0.5-0.8-0.7
			c-0.3-0.2-0.8-0.3-1.3-0.3c-0.2,0-0.5,0-0.7,0.1c-0.2,0-0.4,0.1-0.6,0.2c-0.2,0.1-0.4,0.2-0.5,0.2s-0.3,0.2-0.4,0.2V33.4z"/>
		<path class="st8" d="M183.3,33.6c0.6,0,1.1-0.1,1.5-0.3c0.4-0.2,0.6-0.5,0.6-1c0-0.2,0-0.4-0.1-0.6c-0.1-0.2-0.2-0.3-0.3-0.4
			s-0.4-0.3-0.6-0.4c-0.3-0.1-0.6-0.3-1-0.4c-0.3-0.1-0.6-0.3-0.9-0.4s-0.5-0.3-0.7-0.5c-0.2-0.2-0.4-0.4-0.5-0.6
			c-0.1-0.2-0.2-0.5-0.2-0.9c0-0.7,0.3-1.2,0.8-1.6c0.5-0.4,1.2-0.6,2.1-0.6c0.6,0,1,0,1.4,0.1c0.4,0.1,0.6,0.2,0.8,0.3l-0.2,0.9
			c-0.1-0.1-0.3-0.1-0.6-0.3c-0.3-0.1-0.7-0.2-1.3-0.2c-0.2,0-0.5,0-0.7,0.1s-0.4,0.1-0.6,0.2s-0.3,0.2-0.4,0.4
			c-0.1,0.2-0.1,0.3-0.1,0.6s0,0.4,0.1,0.6c0.1,0.2,0.2,0.3,0.4,0.4c0.2,0.1,0.4,0.2,0.6,0.3c0.2,0.1,0.5,0.2,0.8,0.4
			c0.3,0.1,0.6,0.3,0.9,0.4c0.3,0.1,0.6,0.3,0.8,0.5c0.2,0.2,0.4,0.4,0.5,0.7c0.1,0.3,0.2,0.6,0.2,1c0,0.7-0.3,1.3-0.8,1.7
			s-1.3,0.6-2.3,0.6c-0.7,0-1.3-0.1-1.7-0.2c-0.4-0.1-0.6-0.2-0.8-0.3l0.3-0.9c0,0,0.1,0.1,0.2,0.1c0.1,0,0.3,0.1,0.4,0.2
			c0.2,0.1,0.4,0.1,0.6,0.2C182.7,33.6,183,33.6,183.3,33.6z"/>
	</g>
	<g>
		<path class="st8" d="M80.1,28.5c0-1.1-0.3-2-0.8-2.7c-0.5-0.7-1.3-1.3-2.5-1.6c-0.2-0.1-0.3-0.2-0.3-0.4c0-0.2,0.1-0.3,0.2-0.4
			c0.7-0.4,1.3-0.9,1.7-1.5c0.4-0.6,0.6-1.3,0.6-2.2c0-0.9-0.2-1.7-0.6-2.3c-0.4-0.6-0.9-1.1-1.6-1.5c-0.7-0.4-1.6-0.7-2.5-0.9
			c-1-0.2-2.1-0.3-3.3-0.3c-0.4,0-0.9,0-1.4,0c-0.5,0-1,0-1.5,0.1c-0.5,0-1,0.1-1.4,0.2c-0.3,0-0.7,0.1-1,0.2v18.5
			c0.7,0.2,1.5,0.3,2.4,0.3c1.1,0.1,2.1,0.1,3.1,0.1c3,0,5.2-0.5,6.6-1.5C79.5,31.8,80.1,30.4,80.1,28.5z M68.7,17.5
			c0-0.2,0.1-0.4,0.4-0.4c0.3,0,0.7-0.1,1.1-0.1c0.4,0,0.9,0,1.5,0c1.3,0,2.5,0.2,3.3,0.6c0.9,0.5,1.4,1.3,1.4,2.4
			c0,1.2-0.5,2-1.4,2.5c-0.8,0.4-2,0.6-3.4,0.6h-2.5c-0.2,0-0.4-0.2-0.4-0.4V17.5z M76.8,30.2c-0.3,0.5-0.7,0.8-1.3,1.1
			c-0.5,0.3-1.1,0.4-1.8,0.5C73.1,32,72.4,32,71.6,32c-0.4,0-0.8,0-1.3,0c-0.5,0-0.9,0-1.3-0.1c-0.2,0-0.4-0.2-0.4-0.4v-6
			c0-0.2,0.2-0.4,0.4-0.4h3.2c1.5,0,2.7,0.2,3.6,0.7c1,0.5,1.4,1.4,1.4,2.7C77.3,29.2,77.1,29.8,76.8,30.2z"/>
		<path class="st8" d="M102.3,30c0.3-0.9,0.5-2,0.5-3.1c0-1.1-0.2-2.2-0.5-3.1c-0.3-0.9-0.8-1.7-1.4-2.3c-0.6-0.6-1.3-1.1-2.1-1.5
			c-0.8-0.3-1.8-0.5-2.7-0.5c-1,0-1.9,0.2-2.7,0.5c-0.8,0.3-1.5,0.8-2.1,1.5c-0.6,0.6-1.1,1.4-1.4,2.3c-0.3,0.9-0.5,1.9-0.5,3.1
			s0.2,2.2,0.5,3.1c0.3,0.9,0.8,1.7,1.4,2.3c0.6,0.6,1.3,1.1,2.1,1.5c0.8,0.4,1.7,0.5,2.7,0.5c1,0,1.9-0.2,2.8-0.5
			c0.8-0.4,1.5-0.9,2.1-1.5C101.5,31.7,102,30.9,102.3,30z M99,30.7c-0.7,1-1.7,1.5-3,1.5c-1.3,0-2.3-0.5-3-1.5
			c-0.7-0.9-1-2.2-1-3.8c0-1.6,0.3-2.8,1-3.8c0.7-1,1.7-1.5,3-1.5c1.3,0,2.3,0.5,3,1.5c0.7,0.9,1,2.2,1,3.8
			C100.1,28.5,99.7,29.8,99,30.7z"/>
		<path class="st8" d="M115.3,31.7c-0.3,0.1-0.7,0.2-1.1,0.3c-0.6,0.1-1.2,0.2-1.8,0.2c-1.7,0-2.9-0.5-3.7-1.5
			c-0.7-0.9-1.1-2.2-1.1-3.8c0-1.6,0.4-2.9,1.1-3.8c0.8-0.9,1.9-1.4,3.4-1.4c0.6,0,1.2,0.1,1.7,0.2c0.4,0.1,0.7,0.2,1,0.3l0.5-2
			c-1.1-0.4-2.3-0.6-3.5-0.6c-1.1,0-2.1,0.2-2.9,0.6c-0.9,0.4-1.6,0.9-2.2,1.6c-0.6,0.7-1.1,1.5-1.4,2.4c-0.3,0.9-0.5,1.9-0.5,3
			c0,1.1,0.1,2.1,0.4,3c0.3,0.9,0.7,1.7,1.3,2.3c0.6,0.6,1.3,1.2,2.2,1.5c0.9,0.4,2,0.6,3.2,0.6c0.8,0,1.6-0.1,2.3-0.2
			c0.6-0.1,1-0.2,1.4-0.4L115.3,31.7z"/>
		<path class="st8" d="M146.3,23.7c0.4-0.8,0.6-1.7,0.6-2.8c0-2.1-0.7-3.6-2.1-4.6c-1.5-1-3.6-1.5-6.4-1.5c-0.8,0-1.8,0-2.8,0.1
			c-0.9,0.1-1.7,0.2-2.4,0.3V34h2.8v-6.6c0-0.2,0.2-0.4,0.4-0.4h1.8c1.4,0,2.7-0.1,3.8-0.4c1.1-0.2,2-0.6,2.7-1.1
			C145.4,25.1,145.9,24.5,146.3,23.7z M142.3,24c-1,0.5-2.4,0.8-4.2,0.8h-1.7c-0.2,0-0.4-0.2-0.4-0.4v-6.7c0-0.2,0.2-0.4,0.4-0.4
			c0.6-0.1,1.4-0.1,2.3-0.1c0.7,0,1.4,0.1,2,0.2c0.6,0.1,1.2,0.3,1.7,0.6c0.5,0.3,0.9,0.7,1.2,1.2c0.3,0.5,0.4,1.1,0.4,1.8
			C143.9,22.4,143.3,23.4,142.3,24z"/>
		<path class="st8" d="M87.1,31.9c-0.4-0.1-0.6-0.3-0.9-0.6c-0.2-0.2-0.4-0.5-0.4-0.9c-0.1-0.3-0.1-0.7-0.1-1.1V15L83,15.6V30
			c0,0.7,0.1,1.3,0.2,1.9c0.1,0.5,0.4,0.9,0.7,1.3c0.4,0.3,0.8,0.6,1.4,0.8c0.6,0.2,1.3,0.3,2.1,0.3l0.2-1.2l0.2-0.9
			C87.6,32.1,87.3,32,87.1,31.9z"/>
		<path class="st8" d="M122,27.2c0.5,0.4,1.1,0.9,1.6,1.4c0.5,0.6,1.1,1.1,1.6,1.7c0.5,0.6,1,1.3,1.5,1.9c0.4,0.6,0.8,1.1,1.1,1.7
			h3.1c-0.3-0.5-0.6-1-0.9-1.5c-0.5-0.8-1.1-1.5-1.6-2.3c-0.6-0.8-1.2-1.5-1.8-2.1c-0.6-0.7-1.2-1.2-1.8-1.7
			c-0.1-0.1-0.1-0.2-0.1-0.3c0-0.1,0-0.2,0.1-0.3c1.1-1.1,2.1-2.2,3.2-3.3c0.9-0.9,1.7-1.8,2.4-2.6h-3c-0.3,0.3-0.6,0.7-1,1.1
			c-0.4,0.5-0.9,1-1.4,1.5c-0.5,0.5-1,1-1.5,1.6c-0.5,0.5-1,1-1.4,1.5c-0.1,0.1-0.2,0.1-0.3,0.1c-0.1,0-0.1,0-0.1,0
			c-0.2-0.1-0.3-0.2-0.3-0.4V15l-2.6,0.7V34h2.6v-6.4c0-0.2,0.1-0.3,0.2-0.4c0.1,0,0.1,0,0.2,0C121.9,27.1,122,27.2,122,27.2z"/>
		<polygon class="st8" points="149.5,15.7 149.5,34 152.3,34 152.3,15 		"/>
	</g>
	<path class="st6" d="M50.8,12.8c0-0.1,0-0.1,0-0.2c0,0,0-0.1,0-0.1c0,0,0,0,0,0c0-0.1,0-0.1-0.1-0.2c0,0,0,0,0-0.1
		c0-0.1-0.1-0.1-0.1-0.2c0,0,0,0,0,0c0-0.1-0.1-0.1-0.1-0.1c0,0,0,0,0,0l-7.1-5.8c0,0,0,0,0,0C43.2,6.1,43.1,6,43,6c0,0,0,0-0.1,0
		c-0.1,0-0.2-0.1-0.3-0.1c0,0,0,0,0,0c-0.1,0-0.2,0-0.2,0c0,0-0.1,0-0.1,0c0,0,0,0-0.1,0L7.7,14.6c-0.1,0-0.1,0-0.2,0.1c0,0,0,0,0,0
		c0,0,0,0,0,0c-0.1,0-0.2,0.1-0.2,0.2c0,0,0,0-0.1,0C7.2,15,7.1,15,7.1,15.1c0,0,0,0,0,0c0,0.1-0.1,0.2-0.1,0.3c0,0,0,0,0,0.1
		c0,0.1,0,0.2,0,0.2c0,0,0,0,0,0l-0.1,7.4c0,0,0,0,0,0.1c0,0,0,0.1,0,0.1c0,0,0,0.1,0,0.1c0,0,0,0.1,0,0.1c0,0,0,0.1,0,0.1
		c0,0,0,0.1,0.1,0.1c0,0,0,0.1,0.1,0.1c0,0,0.1,0.1,0.1,0.1c0,0,0,0.1,0.1,0.1l0.1,0.1c1.3,1,4.3,4,4.2,6.4c0,2.4-0.1,6.3-0.1,6.4
		c0,0.3,0.1,0.7,0.4,0.9l6.4,5.4c0,0,0,0,0,0c0,0,0.1,0,0.1,0.1c0,0,0,0,0.1,0c0,0,0.1,0,0.1,0.1c0,0,0,0,0.1,0c0,0,0.1,0,0.1,0
		c0,0,0,0,0,0c0.1,0,0.1,0,0.2,0c0,0,0,0,0,0c0.1,0,0.2,0,0.3,0c0,0,0,0,0,0l7-1.8c0.5-0.1,0.9-0.6,0.9-1.1L27.2,30
		c0-0.3,0.2-2.8,2.3-4.4c1.7,0.3,1.6,1.8,1.6,2.2c0,0,0,0.1,0,0.1l0,4c0,0.3,0.1,0.7,0.4,0.9l6.3,5.3c0,0,0,0,0,0c0,0,0.1,0,0.1,0.1
		c0,0,0.1,0,0.1,0.1c0,0,0.1,0,0.1,0c0,0,0.1,0,0.1,0c0,0,0.1,0,0.1,0c0.1,0,0.1,0,0.2,0c0,0,0,0,0,0c0,0,0,0,0,0c0.1,0,0.2,0,0.3,0
		c0,0,0,0,0,0l6.9-1.7c0.5-0.1,0.9-0.6,0.9-1.1l0.1-10c0,0,0,0,0,0c0-0.3,0.1-2.8,3.1-4.2c0.1,0,0.2,0,0.3-0.1
		c0.4-0.2,0.7-0.6,0.7-1L50.8,12.8C50.8,12.8,50.8,12.8,50.8,12.8z M15.4,20.3l-4.9-4l30.8-7.8l-0.1,5.2L15.4,20.3z M9.1,22.6
		l0.1-4.4l4.8,3.9l-0.1,4.4L9.1,22.6z M43.7,9.4l3.5,2.8l-3.5,0.9L43.7,9.4z M48.5,14.3l0,3.5L45,15.1L48.5,14.3z M13.7,29.3
		l0.6,0.5c0,0,0,0,0,0c0,0,0,0,0.1,0c0,0,0.1,0,0.1,0.1c0,0,0.1,0,0.1,0c0,0,0.1,0,0.1,0c0,0,0,0,0,0c1.1,0.3,3,1.6,3.1,3.3
		l-0.1,6.6l-4.1-3.4c0-1.2,0.1-4,0.1-5.8C13.8,30.1,13.8,29.7,13.7,29.3z M32.5,24.9c-0.1-0.1-0.1-0.2-0.2-0.3c0,0,0,0,0,0
		c1.4-0.2,2.4,0.1,3.3,0.8c1.7,1.4,1.9,4.1,1.9,4.4l-0.1,5.1l-4-3.4l0-3.4C33.4,27.7,33.5,26.1,32.5,24.9z M44.4,25.4
		C44.4,25.5,44.4,25.5,44.4,25.4l-0.1,9.2l-4.6,1.2l0.1-6.1c0,0,0,0,0-0.1c0-0.2-0.2-3.9-2.7-6.1c-1.3-1.1-3-1.6-5.1-1.3
		c-5.3,0.7-7,5.3-7.1,7.6c0,0,0,0,0,0l-0.1,9.6l-4.7,1.2l0.1-7.6c0,0,0,0,0-0.1c-0.1-2.5-2.2-4.3-3.9-5.1l0.1-5.7l26-6.6l5.2,4.1
		C44.6,22,44.4,24.9,44.4,25.4z"/>
</g>
</svg>
