<?xml version="1.0" encoding="utf-8"?>
<!-- Generator: Adobe Illustrator 22.1.0, SVG Export Plug-In . SVG Version: 6.00 Build 0)  -->
<svg version="1.1" id="_x31__x2C_5" xmlns="http://www.w3.org/2000/svg" xmlns:xlink="http://www.w3.org/1999/xlink" x="0px"
	 y="0px" viewBox="0 0 52 52" style="enable-background:new 0 0 52 52;" xml:space="preserve">
<style type="text/css">
	.st0{fill:#121923;}
	.st1{fill:#9945FF;}
	.st2{fill:#00D18C;}
</style>
<g>
	<g>
		<g>
			<path class="st0" d="M28.8,17.9h-5.6c-1.7,0-3.1,1.4-3.1,3.1v5.6c0,1.7,1.4,3.1,3.1,3.1h5.6c1.7,0,3.1-1.4,3.1-3.1V21
				C31.9,19.3,30.5,17.9,28.8,17.9z M30.1,26.6c0,0.7-0.6,1.3-1.3,1.3h-5.6c-0.7,0-1.3-0.6-1.3-1.3V21c0-0.7,0.6-1.3,1.3-1.3h5.6
				c0.7,0,1.3,0.6,1.3,1.3V26.6z"/>
		</g>
		<g>
			<path class="st0" d="M48.1,49.4V31.6c0,0,0,0,0,0c0,0,0-0.1,0-0.1c0,0,0,0,0,0c0,0,0-0.1,0-0.1l0,0c0,0,0-0.1,0-0.1l0,0
				c0,0,0-0.1,0-0.1l0,0c0,0,0,0,0-0.1c0,0,0,0,0,0c0,0,0,0-0.1-0.1c0,0,0,0,0,0c0,0,0,0,0,0c0,0,0,0,0,0c0,0-0.1-0.1-0.1-0.1
				c0,0,0,0,0,0l-8.9-6.7c-0.1,0-0.1-0.1-0.2-0.1c-0.3-0.1-0.4-0.3-0.5-0.6l-1.5-9.7c-0.2-1.2-1-2.2-2.2-2.5
				c-0.3-0.1-0.5-0.3-0.5-0.6l-0.3-1.7c-0.4-2.6-2.7-4.5-5.3-4.5h-0.7c-0.4,0-0.8-0.4-0.8-0.8V0h-1.8v3.7c0,0.4-0.4,0.8-0.8,0.8
				h-0.4c-2.5,0-4.6,1.7-5.2,4.1l-0.5,2.2c-0.1,0.3-0.3,0.5-0.6,0.6c-1.2,0.3-2.1,1.3-2.3,2.5l-1.5,9.7c0,0.3-0.2,0.5-0.5,0.6
				c-0.1,0-0.1,0.1-0.2,0.1l-8.9,6.7c0,0,0,0,0,0c0,0,0,0,0,0c-0.1,0.1-0.1,0.1-0.2,0.2c0,0,0,0,0,0c0,0,0,0,0,0.1l0,0l0,0
				c0,0,0,0,0,0.1c0,0,0,0,0,0c0,0,0,0,0,0.1l0,0c0,0,0,0,0,0c0,0,0,0,0,0.1c0,0,0,0,0,0c0,0.1,0,0.1,0,0.2v17.9
				c0,0.4-0.4,0.8-0.8,0.8H2.2V52h5.1v-1.8H6.5c-0.4,0-0.8-0.4-0.8-0.8V35.2c0-0.3,0.2-0.6,0.5-0.7c0.1,0,0.2-0.1,0.3-0.1
				c0.2,0,0.4,0.1,0.5,0.2l4.2,3.6c0.2,0.2,0.3,0.4,0.3,0.7l-0.3,1.9c0,0.1,0,0.3,0,0.3c0,1.1,0.9,2,2,2h11.2c0.4,0,0.8,0.4,0.8,0.8
				v5.6c0,0.4-0.4,0.8-0.8,0.8h-0.9V52h5.1v-1.8h-0.9c-0.4,0-0.8-0.4-0.8-0.8v-5.6c0-0.4,0.4-0.8,0.8-0.8h11.2c1.1,0,2-0.9,2-2
				c0-0.1,0-0.2,0-0.3c0,0,0,0,0,0l-0.3-1.9c0-0.3,0.1-0.5,0.3-0.7l4.2-3.6c0.1-0.1,0.3-0.2,0.5-0.2c0.1,0,0.2,0,0.3,0.1
				c0.3,0.1,0.5,0.4,0.5,0.7v14.2c0,0.4-0.4,0.8-0.8,0.8h-0.9V52h5.1v-1.8h-0.9C48.4,50.2,48.1,49.9,48.1,49.4z M20.1,10.2L20.4,9
				c0.4-1.6,1.8-2.7,3.5-2.7h4.5c1.8,0,3.2,1.3,3.5,3l0.2,1c0,0.2,0,0.5-0.2,0.6c-0.1,0.2-0.4,0.3-0.6,0.3H20.9
				c-0.2,0-0.5-0.1-0.6-0.3C20.1,10.7,20.1,10.4,20.1,10.2z M11.6,35.6c-0.1,0-0.2,0-0.3,0c-0.2,0-0.4-0.1-0.5-0.2L7,32.3
				c-0.2-0.2-0.3-0.4-0.3-0.6c0-0.2,0.1-0.5,0.3-0.6l4.9-3.7c0.1-0.1,0.3-0.2,0.5-0.2c0.1,0,0.3,0,0.4,0.1c0.3,0.2,0.4,0.5,0.4,0.8
				L12.1,35C12,35.3,11.8,35.5,11.6,35.6z M38.8,41c-0.1,0.2-0.4,0.3-0.6,0.3H13.8c-0.2,0-0.4-0.1-0.6-0.3S13,40.6,13,40.4l4.1-26.3
				c0.1-0.7,0.7-1.1,1.3-1.1h0.3h14.5h0.3c0.7,0,1.2,0.5,1.3,1.1L39,40.4C39,40.6,38.9,40.8,38.8,41z M45,32.3l-3.8,3.2
				c-0.1,0.1-0.3,0.2-0.5,0.2c-0.1,0-0.2,0-0.3,0c-0.3-0.1-0.5-0.3-0.5-0.6l-1.1-6.9c0-0.3,0.1-0.6,0.4-0.8c0.1-0.1,0.3-0.1,0.4-0.1
				c0.2,0,0.3,0.1,0.5,0.2L45,31c0.2,0.1,0.3,0.4,0.3,0.6C45.3,31.9,45.2,32.1,45,32.3z"/>
		</g>
		<g>
			<rect x="17.9" y="34.6" class="st0" width="16.3" height="1.8"/>
		</g>
	</g>
	<g>
		<rect x="22.1" y="8.4" class="st2" width="4.2" height="1.8"/>
	</g>
	<g>
		<rect x="32.3" y="38.2" class="st1" width="4.2" height="1.8"/>
	</g>
</g>
</svg>
