<?xml version="1.0" encoding="utf-8"?>
<!-- Generator: Adobe Illustrator 22.1.0, SVG Export Plug-In . SVG Version: 6.00 Build 0)  -->
<svg version="1.1" id="_x31__x2C_5" xmlns="http://www.w3.org/2000/svg" xmlns:xlink="http://www.w3.org/1999/xlink" x="0px"
	 y="0px" viewBox="0 0 52 52" style="enable-background:new 0 0 52 52;" xml:space="preserve">
<style type="text/css">
	.st0{fill:#121923;}
	.st1{fill:#9945FF;}
	.st2{fill:#00D18C;}
</style>
<g>
	<g>
		<g>
			<path class="st0" d="M45,15.6h-3.4c-0.4,0-0.8-0.3-0.8-0.7c-0.1-3.4-1.7-6.6-4.5-8.9C33.5,3.6,29.9,2.2,26,2.2S18.5,3.6,15.7,6
				c-2.8,2.4-4.4,5.5-4.5,8.9c0,0.4-0.4,0.7-0.8,0.7H7c-3.9,0-7,3.2-7,7c0,3.9,3.2,7,7,7h2.6c0.3,0,0.6,0.2,0.7,0.4l1.3,2.3
				c0.8,1.4,1.9,2.5,3.4,3.2c0.4,0.2,0.5,0.6,0.4,1l-3.7,10.5C11.5,47.6,11,48,10.5,48H6.7v1.8h3.8c1.3,0,2.5-0.8,2.9-2.1l3.8-10.8
				c0.1-0.3,0.4-0.5,0.7-0.5c0,0,0,0,0,0c0.1,0,0.2,0,0.3,0h6.1c0.4,0,0.8,0.4,0.8,0.8v10c0,0.4-0.4,0.8-0.8,0.8h-2.6v1.8h8.5V48
				h-2.6c-0.4,0-0.8-0.4-0.8-0.8v-10c0-0.4,0.4-0.8,0.8-0.8h6.1c0.1,0,0.2,0,0.3,0c0,0,0,0,0,0c0.3,0,0.6,0.2,0.7,0.5l3.8,10.8
				c0.4,1.3,1.6,2.1,2.9,2.1h3.8V48h-3.8c-0.6,0-1.1-0.4-1.3-0.9l-3.6-10.5c-0.1-0.4,0-0.8,0.4-1c1.4-0.7,2.6-1.8,3.4-3.2l1.3-2.3
				c0.1-0.3,0.4-0.4,0.7-0.4H45c3.9,0,7-3.2,7-7C52,18.8,48.8,15.6,45,15.6z M26,4c6.9,0,12.7,4.7,13,10.8c0,0.2-0.1,0.4-0.2,0.6
				c-0.1,0.2-0.4,0.2-0.6,0.2H13.7c-0.2,0-0.4-0.1-0.6-0.2C13,15.2,12.9,15,13,14.8C13.3,8.7,19.1,4,26,4z M39.2,30.8l-0.4,0.7
				c-1,1.9-3,3-5.1,3H18.3c-2.1,0-4.1-1.2-5.1-3l-0.4-0.7c-0.1-0.2-0.1-0.5,0-0.8c0.1-0.2,0.4-0.4,0.7-0.4h25.1
				c0.3,0,0.5,0.1,0.7,0.4C39.4,30.3,39.4,30.6,39.2,30.8z M45,27.9H7c-2.9,0-5.2-2.4-5.2-5.2c0-2.9,2.4-5.2,5.2-5.2H45
				c2.9,0,5.2,2.4,5.2,5.2C50.2,25.5,47.9,27.9,45,27.9z"/>
		</g>
		<g>
			<rect x="17.9" y="21.8" class="st0" width="5.1" height="1.8"/>
		</g>
		<rect x="6.7" y="21.8" class="st1" width="5.1" height="1.8"/>
		<g>
			<rect x="29" y="21.8" class="st0" width="5.1" height="1.8"/>
		</g>
		<rect x="40.2" y="21.8" class="st2" width="5.1" height="1.8"/>
	</g>
</g>
</svg>
