<?xml version="1.0" encoding="utf-8"?>
<!-- Generator: Adobe Illustrator 22.1.0, SVG Export Plug-In . SVG Version: 6.00 Build 0)  -->
<svg version="1.1" id="_x31__x2C_5" xmlns="http://www.w3.org/2000/svg" xmlns:xlink="http://www.w3.org/1999/xlink" x="0px"
	 y="0px" viewBox="0 0 52 52" style="enable-background:new 0 0 52 52;" xml:space="preserve">
<style type="text/css">
	.st0{fill:#121923;}
	.st1{fill:#9945FF;}
	.st2{fill:#00D18C;}
</style>
<g>
	<g>
		<g>
			<path class="st0" d="M49.6,12.8c0.8-1.8,0.9-3.9,0.2-5.8c-1.1-3-3.9-5-7.1-5c-0.4,0-0.7,0-1.1,0.1l-0.6,0.1l-0.3-0.5
				C40.3,0.7,39.2,0,38,0h0c-0.4,0-0.7,0.1-1.1,0.2l0,0l0,0c0,0-0.2,0.1-0.2,0.1l0,0l0,0l-20,9.1l0,0l0,0c0,0,0,0,0,0
				c0,0-0.1,0-0.1,0.1l0,0l0,0l-6.1,2.8c-1.5,0.7-2.2,2.4-1.7,3.9l0.2,0.5l0.3,0.7l-0.7,0.3l-4.7,1.7c-0.8,0.3-1.4,0.9-1.8,1.6
				c-0.4,0.8-0.4,1.6-0.1,2.4l0.8,2.1c0.4,1.2,1.6,2,2.9,2c0.4,0,0.7-0.1,1.1-0.2l4.7-1.7l0.7-0.3l0.3,0.7l0.2,0.5
				c0.4,1.2,1.6,2,2.9,2c0.3,0,0.6,0,0.8-0.1l6.6-1.8l0,0l0,0c0,0,0,0,0,0l0,0l0,0l2.8-0.8l0.5-0.1l0.3,0.4c0.1,0.1,0.1,0.1,0.2,0.2
				l0.3,0.4l-0.2,0.5l-5.5,13.7l-0.2,0.5l-3.2,8.1c-0.2,0.5-0.7,0.8-1.2,0.8h-3.3V52h3.3c1.3,0,2.4-0.8,2.9-2l2.6-6.5l0.2-0.5h0.5
				h4.8h0.8v0.8V52h1.8v-8.1v-0.8H31h4.8h0.5l0.2,0.5l2.6,6.5c0.5,1.2,1.6,2,2.9,2h3.3v-1.8H42c-0.6,0-1-0.3-1.3-0.8l-3.2-8.1
				l-0.2-0.5l-5.5-13.7l-0.2-0.5l0.3-0.4c0.5-0.6,0.9-1.3,1-2l0.1-0.5l0.5-0.1l10.6-2.9l0,0l0,0l0,0l0,0c0.1,0,0.1,0,0.1,0
				c0.8-0.3,1.4-0.9,1.8-1.6c0.3-0.7,0.4-1.4,0.2-2.1l-0.1-0.6l0.5-0.3C48,15.3,49,14.2,49.6,12.8z M10.7,23.9L6,25.6
				c-0.1,0.1-0.3,0.1-0.5,0.1c-0.6,0-1.1-0.4-1.3-0.9l-0.8-2.1c-0.1-0.3-0.1-0.7,0-1c0.1-0.2,0.3-0.5,0.8-0.7L9,19.3L9.8,19l0.3,0.7
				l1.1,3.1l0.3,0.7L10.7,23.9z M20.7,25.4l-4.9,1.4l0,0l0,0c-0.1,0-0.2,0-0.3,0c-0.6,0-1.1-0.3-1.3-0.9L13.5,24l0,0l0,0
				c0,0,0-0.1,0-0.1l-2.3-6.2c0,0,0,0,0-0.1l0,0l0,0l-0.7-1.9c-0.2-0.7,0.1-1.4,0.7-1.7l4.6-2.1l0.8-0.3l0.3,0.8l4.4,12.2l0.3,0.8
				L20.7,25.4z M35.2,40.2l0.4,1.1h-1.2H31h-0.8v-0.8v-2.6h-1.8v2.6v0.8h-0.8h-3.4h-1.2l0.4-1.1l4.9-12.3l0.2-0.5l0.6,0
				c0.1,0,0.1,0,0.2,0c0.1,0,0.1,0,0.2,0l0.6,0l0.2,0.5L35.2,40.2z M27.4,23.8c0-1,0.9-1.9,1.9-1.9c1,0,1.9,0.9,1.9,1.9
				c0,1-0.9,1.9-1.9,1.9C28.3,25.7,27.4,24.8,27.4,23.8z M35.7,21.2l-2.5,0.7L32.6,22l-0.3-0.4c-0.7-0.9-1.8-1.5-3-1.5
				c-1.9,0-3.5,1.5-3.7,3.4l0,0.5l-0.5,0.1l-1.2,0.3l-0.7,0.2L22.9,24l-4.6-12.6l-0.3-0.7l0.7-0.3l11.1-5L30.7,5l0.3,0.8l5.3,14.4
				l0.3,0.8L35.7,21.2z M44.6,18.2L44.6,18.2L44.6,18.2c-0.1,0.3-0.4,0.5-0.7,0.7l-0.1,0.1l-0.1,0l-4.8,1.3l-0.7,0.2L38,19.8
				L32.5,4.9l-0.2-0.7l0.7-0.3l4.6-2.1l0,0l0,0c0.2-0.1,0.3-0.1,0.5-0.1c0.6,0,1.1,0.4,1.3,0.9l0.3,0.9l0,0l0,0l0,0c0,0,0,0,0,0
				c0,0,0,0,0,0l0,0l0,0l0,0l4.9,13.4C44.7,17.6,44.7,17.9,44.6,18.2z M45.6,14.8l-0.4-1L42,4.9l-0.4-1l1.1,0l0,0
				c2.4,0,4.6,1.5,5.4,3.8c0.5,1.4,0.5,3-0.2,4.4c-0.4,0.8-0.9,1.5-1.6,2L45.6,14.8z"/>
		</g>
	</g>
	<g>
		<rect x="37.9" y="6.5" transform="matrix(0.934 -0.3574 0.3574 0.934 -0.5195 14.429)" class="st1" width="1.8" height="4.3"/>
	</g>
	<g>
		<rect x="15.4" y="20.6" transform="matrix(0.9371 -0.3489 0.3489 0.9371 -6.8399 7.1077)" class="st2" width="1.8" height="3.8"/>
	</g>
</g>
</svg>
